<svg width="78" height="76" viewBox="0 0 78 76" fill="none" xmlns="http://www.w3.org/2000/svg">
<g clip-path="url(#clip0)">
<path d="M61.6 14.5525L58.6 7.19768L46.7 0.482422L46.3 0.695605H46.2L45.8 0.908788L30.4 8.05041L37.3 24.2523L31.4 27.0237L28.4 19.6689L15.9 14.0195L0 21.0546L9.6 46.1035H9.7L18.8 70.2998L31.4 75.6294L47.2 68.5943L40.6 52.0727L46.2 49.6211L49.2 56.6561L61.7 61.8791L77.3 54.844L61.6 14.5525Z" fill="white"/>
<path d="M58.2992 7.30469L43.7992 13.7002L49.9992 29.9021L34.1992 36.9371L27.5992 20.4154L13.6992 26.7043L22.5992 50.261L22.8992 51.2203L31.8992 74.2441L46.0992 67.8486L39.7992 51.6467L55.2992 44.6117L61.8992 60.8136L76.3992 54.5247L58.2992 7.30469Z" fill="#1F00FF"/>
</g>
<defs>
<clipPath id="clip0">
<rect width="77.3" height="75.1469" fill="white" transform="translate(0 0.482422)"/>
</clipPath>
</defs>
</svg>
